<svg id="Capa_1" enable-background="new 0 0 512 512" height="512" viewBox="0 0 512 512" width="512" xmlns="http://www.w3.org/2000/svg"><g><path d="m338.392 315.36 54.612-297.653-274.05-.239 49.703 297.969-49.359 177.545 273.297-.368z" fill="#ecf0f9"/><path d="m256 17.587v475.211l136.595-.184-54.203-177.254 54.612-297.653z" fill="#dce0ea"/><g><path d="m347.917 331.25h-188.855c-8.284 0-15-6.716-15-15s6.716-15 15-15h188.855c8.284 0 15 6.716 15 15s-6.716 15-15 15z" fill="#cdd1e0"/></g><g><path d="m391.75 30h-271.5c-8.284 0-15-6.716-15-15s6.716-15 15-15h271.5c8.284 0 15 6.716 15 15s-6.716 15-15 15z" fill="#cdd1e0"/></g><g><path d="m391.75 512h-271.5c-8.284 0-15-6.716-15-15s6.716-15 15-15h271.5c8.284 0 15 6.716 15 15s-6.716 15-15 15z" fill="#cdd1e0"/></g><g fill="#bec2d0"><path d="m391.75 482h-135.75v30h135.75c8.284 0 15-6.716 15-15s-6.716-15-15-15z"/><path d="m391.75 0h-135.75v30h135.75c8.284 0 15-6.716 15-15s-6.716-15-15-15z"/><path d="m347.917 301.25h-91.917v30h91.917c8.284 0 15-6.716 15-15s-6.716-15-15-15z"/></g></g></svg>