<?xml version="1.0" encoding="iso-8859-1"?>
<!-- Generator: Adobe Illustrator 19.0.0, SVG Export Plug-In . SVG Version: 6.00 Build 0)  -->
<svg version="1.1" id="Capa_1" xmlns="http://www.w3.org/2000/svg" xmlns:xlink="http://www.w3.org/1999/xlink" x="0px" y="0px"
	 viewBox="0 0 512 512" style="enable-background:new 0 0 512 512;" xml:space="preserve">
<path style="fill:#C6C6C6;" d="M449.5,87c0-24.853-20.147-45-45-45h-297c-24.853,0-45,20.147-45,45v380c0,24.853,20.147,45,45,45
	h297c24.853,0,45-20.147,45-45V87z"/>
<path style="fill:#F7F7F7;" d="M256.5,42h-149c-24.853,0-45,20.147-45,45v380c0,24.853,20.147,45,45,45h149V42z"/>
<path style="fill:#5D5D5D;" d="M154.156,262h136.242c8.284,0,15-6.716,15-15s-6.716-15-15-15H154.156c-8.284,0-15,6.716-15,15
	S145.872,262,154.156,262z"/>
<path style="fill:#8A8A8A;" d="M154.156,262H256.5v-30H154.156c-8.284,0-15,6.716-15,15S145.872,262,154.156,262z"/>
<path style="fill:#AB5D26;" d="M449.5,87c0-24.853-20.147-45-45-45h-297c-24.853,0-45,20.147-45,45v72h387V87z"/>
<path style="fill:#ED8235;" d="M256.5,42h-149c-24.853,0-45,20.147-45,45v72h194V42z"/>
<path style="fill:#5D5D5D;" d="M339.949,262h18.222c8.284,0,15-6.716,15-15s-6.716-15-15-15h-18.222c-8.284,0-15,6.716-15,15
	S331.665,262,339.949,262z"/>
<path style="fill:#F7A248;" d="M347.5,30c0-16.569-13.431-30-30-30h-121c-16.569,0-30,13.431-30,30v47c0,16.569,13.431,30,30,30h121
	c16.569,0,30-13.431,30-30V30z"/>
<path style="fill:#FFD357;" d="M256.5,0h-60c-16.569,0-30,13.431-30,30v47c0,16.569,13.431,30,30,30h60V0z"/>
<path style="fill:#5D5D5D;" d="M154.156,338h136.242c8.284,0,15-6.716,15-15s-6.716-15-15-15H154.156c-8.284,0-15,6.716-15,15
	S145.872,338,154.156,338z"/>
<path style="fill:#8A8A8A;" d="M154.156,338H256.5v-30H154.156c-8.284,0-15,6.716-15,15S145.872,338,154.156,338z"/>
<path style="fill:#5D5D5D;" d="M154.156,414h136.242c8.284,0,15-6.716,15-15s-6.716-15-15-15H154.156c-8.284,0-15,6.716-15,15
	S145.872,414,154.156,414z"/>
<path style="fill:#8A8A8A;" d="M154.156,414H256.5v-30H154.156c-8.284,0-15,6.716-15,15S145.872,414,154.156,414z"/>
<g>
	<path style="fill:#5D5D5D;" d="M339.949,414h18.222c8.284,0,15-6.716,15-15s-6.716-15-15-15h-18.222c-8.284,0-15,6.716-15,15
		S331.665,414,339.949,414z"/>
	<path style="fill:#5D5D5D;" d="M358.171,308h-18.222c-8.284,0-15,6.716-15,15s6.716,15,15,15h18.222c8.284,0,15-6.716,15-15
		S366.456,308,358.171,308z"/>
</g>
<g>
</g>
<g>
</g>
<g>
</g>
<g>
</g>
<g>
</g>
<g>
</g>
<g>
</g>
<g>
</g>
<g>
</g>
<g>
</g>
<g>
</g>
<g>
</g>
<g>
</g>
<g>
</g>
<g>
</g>
</svg>
