<svg id="Capa_1" enable-background="new 0 0 512 512" height="512" viewBox="0 0 512 512" width="512" xmlns="http://www.w3.org/2000/svg"><g><g><path d="m137.255 91.586c-24.652 0-44.843-19.915-45.115-44.628-.273-24.88 19.746-45.345 44.626-45.619 12.008-.131 23.435 4.436 32.051 12.864 8.617 8.429 13.436 19.708 13.568 31.761s-4.436 23.436-12.864 32.052c-8.429 8.617-19.709 13.436-31.761 13.567-.168.002-.337.003-.505.003zm.013-60.25c-.058 0-.114 0-.171.001-8.34.092-15.051 6.952-14.959 15.291.045 4.039 1.66 7.82 4.548 10.646 2.848 2.784 6.596 4.312 10.572 4.312.058 0 .114 0 .171-.001h.001c4.04-.044 7.82-1.659 10.645-4.547 2.825-2.889 4.357-6.704 4.312-10.743-.045-4.04-1.66-7.821-4.548-10.646-2.847-2.784-6.596-4.313-10.571-4.313z" fill="#edba45"/></g><g><path d="m203.106 150.502c-3.446 0-6.91-1.181-9.735-3.595-6.299-5.38-7.044-14.849-1.663-21.147 7.069-8.277 10.943-18.806 10.938-29.696l-.083-1.036c-.027-.343-.043-.687-.047-1.031-.19-17.283-7.101-33.458-19.456-45.545-12.183-11.916-28.22-18.452-45.231-18.452-.244 0-.488.001-.733.004-35.679.394-64.387 29.74-63.993 65.42.092 8.283-6.55 15.073-14.834 15.164-.056.001-.112.001-.169.001-8.207 0-14.904-6.607-14.995-14.835-.279-25.296 9.31-49.188 27-67.271 17.69-18.085 41.364-28.197 66.661-28.477 52.077-.575 94.878 41.149 95.739 93.121l.088 1.095c.027.343.043.687.047 1.03.202 18.32-6.233 36.074-18.122 49.992-2.967 3.474-7.177 5.258-11.412 5.258z" fill="#f4d854"/></g><g><path d="m453.901 512h-306.094c-8.284 0-15-6.716-15-15v-391.747c0-8.284 6.716-15 15-15h306.095c8.284 0 15 6.716 15 15v391.747c-.001 8.284-6.716 15-15.001 15z" fill="#dfecfd"/></g><path d="m232.64 95.25c.2 18.32-6.23 36.08-18.12 49.99-2.97 3.48-7.18 5.26-11.41 5.26-3.45 0-6.91-1.18-9.74-3.59-6.3-5.38-7.04-14.85-1.66-21.15 7.07-8.28 10.94-18.81 10.93-29.7l-.08-1.03c-.03-.35-.04-.69-.05-1.03-.01-1.26-.06-2.51-.15-3.75h30.04c.05.95.08 1.92.1 2.88l.09 1.09c.03.34.05.69.05 1.03z" fill="#edba45"/><path d="m453.901 90.253h-153.047v421.747h153.047c8.284 0 15-6.716 15-15v-391.747c0-8.284-6.715-15-15-15z" fill="#c4e1f5"/><g><path d="m355.518 451.75h-109.329c-29.298 0-53.133-23.836-53.133-53.134v-112.491c0-8.284 6.716-15 15-15h185.595c8.284 0 15 6.716 15 15v112.491c0 29.298-23.836 53.134-53.133 53.134z" fill="#da5d1e"/></g><path d="m393.651 271.125h-92.797v180.625h54.664c29.298 0 53.134-23.836 53.134-53.134v-112.491c-.001-8.284-6.716-15-15.001-15z" fill="#c80c0c"/></g></svg>