<?xml version="1.0" encoding="iso-8859-1"?>
<!-- Generator: Adobe Illustrator 18.0.0, SVG Export Plug-In . SVG Version: 6.00 Build 0)  -->
<!DOCTYPE svg PUBLIC "-//W3C//DTD SVG 1.1//EN" "http://www.w3.org/Graphics/SVG/1.1/DTD/svg11.dtd">
<svg version="1.1" id="Capa_1" xmlns="http://www.w3.org/2000/svg" xmlns:xlink="http://www.w3.org/1999/xlink" x="0px" y="0px"
     viewBox="0 0 491.035 491.035" style="enable-background:new 0 0 491.035 491.035;" xml:space="preserve">
<path id="cocktail-glass" style="fill:#fff;" d="M459.017,29.493c4.949-4.948,6.416-12.371,3.743-18.832
    C460.083,4.208,453.785,0,446.805,0H44.235c-6.99,0-13.288,4.208-15.957,10.661c-2.682,6.461-1.205,13.884,3.743,18.832
    l196.223,196.206v195.573L114.536,476.41c-3.215,1.576-4.94,5.161-4.131,8.647c0.799,3.504,3.905,5.978,7.49,5.978h255.25
    c3.585,0,6.686-2.474,7.481-5.978c0.817-3.486-0.907-7.071-4.131-8.647l-113.7-55.139V225.698L459.017,29.493z M405.098,34.545
    l-45.323,45.323c-39.639-6.678-72.694,14.453-108.978,23.551c-40.365,10.122-85.011-25.037-125.503-29.52L85.932,34.545H405.098z"/>
<g>
</g>
<g>
</g>
<g>
</g>
<g>
</g>
<g>
</g>
<g>
</g>
<g>
</g>
<g>
</g>
<g>
</g>
<g>
</g>
<g>
</g>
<g>
</g>
<g>
</g>
<g>
</g>
<g>
</g>
</svg>
