<?xml version="1.0" standalone="no"?>
<!DOCTYPE svg PUBLIC "-//W3C//DTD SVG 20010904//EN"
 "http://www.w3.org/TR/2001/REC-SVG-20010904/DTD/svg10.dtd">
<svg version="1.0" xmlns="http://www.w3.org/2000/svg"
 width="1060.000000pt" height="1060.000000pt" viewBox="0 0 1060.000000 1060.000000"
 preserveAspectRatio="xMidYMid meet">
<metadata>
Created by potrace 1.11, written by Peter Selinger 2001-2013
</metadata>
<g transform="translate(0.000000,1060.000000) scale(0.100000,-0.100000)"
fill="#000000" stroke="none">
<path d="M3111 10578 c-9 -25 -6 -66 9 -112 7 -18 6 -33 0 -41 -12 -14 2 -67
19 -73 10 -3 11 3 6 27 -7 35 8 43 25 12 7 -14 6 -21 -3 -24 -8 -4 -7 -6 3 -6
15 -1 80 -101 80 -123 0 -5 11 -24 25 -42 14 -18 25 -38 25 -45 0 -7 4 -10 9
-7 10 6 21 -26 21 -61 0 -14 6 -23 16 -23 8 0 12 -4 9 -10 -3 -5 1 -10 9 -10
22 0 32 -26 40 -100 2 -14 4 -31 4 -37 4 -27 22 -12 22 18 0 18 4 28 10 24 6
-4 8 -11 5 -16 -4 -5 -1 -9 6 -9 7 0 9 -3 6 -6 -7 -7 32 -87 46 -92 4 -2 7
-11 7 -20 0 -15 -2 -15 -10 -2 -7 11 -8 5 -4 -20 9 -46 13 -49 31 -25 15 19
15 19 10 -5 -4 -15 0 -31 9 -41 27 -30 -8 -17 -53 19 -22 17 -43 29 -45 26 -3
-3 -15 6 -26 20 -11 15 -29 26 -40 26 -12 0 -24 5 -27 10 -3 6 -13 10 -21 10
-28 0 -147 62 -134 70 9 5 5 8 -11 9 -13 0 -60 3 -103 5 -44 3 -98 1 -120 -4
-38 -8 -67 -3 -38 7 16 6 15 23 -2 23 -8 0 -16 -7 -20 -15 -3 -8 -16 -15 -28
-15 -23 -1 -23 -1 2 -15 22 -12 21 -20 -2 -16 -5 0 -8 -4 -8 -10 0 -5 -10 -9
-22 -7 -15 2 -24 -3 -26 -15 -6 -29 -37 -56 -53 -46 -23 14 -27 11 -27 -25 0
-41 -30 -80 -49 -64 -10 8 -13 6 -13 -10 0 -12 5 -24 10 -27 16 -10 12 -23
-10 -30 -11 -4 -20 -12 -19 -18 2 -12 -1 -23 -24 -79 -6 -15 -21 -32 -33 -39
-31 -16 -43 -45 -48 -115 -6 -66 -13 -94 -27 -94 -5 0 -9 -22 -9 -50 0 -27 -4
-50 -10 -50 -12 0 -5 -186 10 -255 17 -81 19 -95 10 -100 -4 -2 -38 -7 -76
-10 -38 -2 -101 -7 -140 -10 -61 -5 -78 -3 -113 16 -24 12 -74 25 -118 30 -43
5 -80 14 -84 21 -5 7 -19 14 -31 15 -13 1 -53 7 -90 14 -117 22 -230 -15 -305
-100 -23 -28 -48 -134 -32 -139 5 -2 7 -8 3 -13 -3 -5 0 -9 5 -9 6 0 11 -7 11
-15 0 -22 49 -64 110 -93 61 -28 186 -42 224 -24 53 25 102 43 107 40 4 -2 16
5 27 16 16 14 37 18 91 18 39 0 70 3 69 7 -4 35 27 48 125 50 68 2 77 0 77
-16 0 -10 10 -47 21 -83 35 -108 159 -594 174 -679 3 -19 10 -42 16 -53 6 -11
11 -32 11 -49 1 -16 4 -29 7 -29 4 0 22 -46 40 -102 18 -57 44 -128 57 -159
13 -31 24 -60 24 -65 0 -12 58 -125 99 -194 18 -30 35 -63 37 -73 2 -11 10
-27 19 -36 8 -9 29 -33 45 -55 104 -135 283 -319 370 -378 14 -10 21 -18 16
-18 -6 0 10 -15 35 -32 24 -18 58 -47 75 -65 17 -18 36 -33 43 -33 6 0 11 -7
11 -15 0 -8 10 -20 23 -26 28 -15 41 -26 94 -78 23 -22 46 -41 51 -41 5 0 36
-27 68 -60 32 -33 63 -60 68 -60 5 0 28 -17 51 -37 23 -21 66 -59 96 -85 30
-26 101 -89 159 -140 58 -51 120 -105 138 -120 35 -30 38 -35 20 -41 -7 -2 -5
-3 5 -1 16 2 88 -50 114 -83 7 -9 23 -21 35 -27 13 -6 30 -25 38 -42 10 -20
29 -37 56 -48 41 -17 124 -88 124 -106 0 -6 3 -9 8 -7 16 5 146 -109 138 -121
-3 -4 4 -14 16 -21 16 -10 19 -10 13 1 -4 7 3 3 16 -9 61 -57 155 -133 165
-133 6 0 18 -7 25 -16 7 -9 37 -27 66 -40 47 -22 77 -52 78 -79 0 -5 6 -10 12
-10 18 0 46 -43 37 -57 -4 -6 -3 -8 4 -4 6 3 19 -7 28 -24 10 -16 22 -30 26
-30 4 0 8 -9 8 -19 0 -11 5 -23 10 -26 6 -3 10 -16 10 -28 0 -13 7 -33 16 -45
8 -12 13 -26 9 -31 -3 -6 2 -14 12 -19 12 -7 17 -21 16 -49 -1 -21 2 -72 7
-113 5 -41 12 -165 15 -275 3 -110 9 -249 13 -310 3 -60 7 -158 7 -217 0 -58
4 -104 9 -101 5 3 6 -40 3 -99 -3 -58 -2 -110 3 -114 4 -5 11 -108 15 -229 3
-121 8 -245 10 -275 2 -30 6 -140 9 -243 3 -103 7 -191 9 -195 6 -10 19 -292
23 -522 10 -484 10 -551 1 -616 -5 -39 -16 -73 -23 -77 -11 -6 -12 -13 -3 -29
8 -14 8 -23 0 -31 -6 -6 -11 -23 -11 -38 0 -15 -16 -49 -35 -75 -19 -27 -49
-70 -67 -96 -18 -26 -37 -47 -43 -46 -13 2 -352 -13 -385 -17 -153 -20 -305
-37 -347 -38 -29 -1 -53 -6 -53 -11 0 -6 -5 -5 -12 2 -7 7 -17 8 -28 2 -10 -5
-32 -11 -51 -14 -19 -3 -63 -9 -99 -15 -88 -13 -144 -21 -216 -31 -34 -4 -70
-12 -80 -18 -10 -5 -40 -12 -65 -16 -26 -4 -81 -17 -123 -30 -41 -13 -77 -21
-80 -19 -3 3 -13 -2 -22 -12 -9 -9 -25 -14 -35 -12 -11 3 -19 0 -19 -8 0 -7
-14 -18 -31 -26 -29 -12 -79 -53 -79 -65 0 -5 -48 -72 -60 -84 -10 -10 -9
-143 1 -163 6 -11 12 -30 14 -43 1 -14 12 -33 24 -43 11 -10 21 -23 21 -30 0
-6 5 -11 11 -11 5 0 7 -4 4 -10 -3 -5 2 -10 13 -10 11 0 31 -9 46 -21 14 -11
26 -18 26 -15 0 3 12 1 28 -5 15 -6 34 -12 42 -14 28 -6 105 -45 90 -45 -13 0
-13 -1 0 -10 8 -5 18 -6 23 -1 11 11 108 -8 128 -25 9 -8 27 -13 40 -13 13 1
37 -3 52 -10 16 -6 44 -11 64 -11 30 0 34 -2 23 -15 -11 -13 -6 -15 31 -16 42
0 162 -18 364 -54 287 -50 524 -62 1175 -59 667 4 943 10 1028 23 134 20 143
20 135 8 -5 -9 -3 -9 8 0 11 9 106 22 187 26 6 0 12 3 12 7 0 3 16 4 35 2 20
-2 35 0 35 6 0 11 22 17 95 27 69 9 99 16 130 30 17 7 62 22 100 33 169 48
221 65 235 77 19 16 52 29 67 26 6 -1 19 12 29 28 9 16 34 39 56 51 21 12 38
29 38 39 0 9 4 21 10 27 13 13 23 164 11 164 -11 0 -36 69 -33 87 1 6 -3 15
-9 19 -8 5 -10 3 -4 -7 4 -8 -5 -2 -21 12 -16 15 -53 40 -81 56 -29 16 -51 32
-49 34 2 2 -7 5 -20 5 -14 1 -38 7 -55 14 -23 10 -27 15 -18 26 9 11 8 14 -4
14 -8 0 -18 -6 -20 -12 -4 -9 -8 -10 -14 -2 -4 6 -15 11 -23 11 -35 -1 -149
36 -143 46 3 6 1 7 -5 4 -12 -8 -113 13 -108 22 2 3 -8 6 -22 7 -38 1 -92 10
-212 34 -58 12 -119 21 -137 21 -17 -1 -34 2 -37 7 -3 5 -40 9 -82 10 -42 2
-79 4 -83 6 -3 2 -85 7 -181 11 -96 4 -178 9 -181 11 -3 1 -58 4 -123 5 -88 1
-116 4 -113 14 3 6 1 18 -5 26 -8 11 -9 10 -4 -3 11 -34 -11 -17 -45 34 -88
135 -110 193 -113 298 -1 44 -8 74 -20 93 -16 23 -18 39 -12 95 3 37 8 76 10
87 2 11 0 25 -5 31 -5 6 -7 85 -6 175 3 134 7 170 21 198 15 28 16 38 6 56
-12 23 -11 145 1 155 4 3 3 30 -1 60 -4 30 -5 57 -1 60 3 3 6 91 7 195 1 243
14 605 23 605 3 0 5 47 4 105 -1 58 1 105 5 105 4 0 8 143 10 318 1 174 4 335
7 357 2 22 7 119 11 215 3 96 8 179 11 183 3 5 7 43 9 85 9 194 13 219 49 295
19 40 35 84 35 96 0 16 4 21 14 18 9 -4 13 -1 10 6 -2 7 11 30 31 51 19 21 35
44 35 50 0 7 16 25 36 41 20 16 41 42 46 58 7 18 15 26 24 23 8 -3 14 -1 14 5
0 5 16 17 35 25 19 8 35 19 35 24 0 6 6 10 13 10 7 0 33 23 57 51 42 47 95 86
112 81 5 -1 7 1 6 6 -4 12 33 61 50 67 10 2 41 26 70 52 28 27 64 57 78 68 14
11 44 37 65 58 22 20 44 37 50 37 5 0 30 20 55 45 26 24 51 42 57 38 5 -3 7
-2 4 4 -6 10 30 48 89 94 29 22 177 149 215 184 9 8 18 15 22 15 3 0 17 10 30
23 13 12 36 31 52 42 16 11 40 33 54 49 14 15 46 42 71 59 25 17 61 48 81 69
19 21 40 38 46 38 7 0 20 10 30 23 10 13 32 32 48 42 17 10 53 40 80 65 28 26
69 59 92 74 23 15 49 39 58 52 8 13 21 24 29 24 23 0 262 245 337 345 24 33
54 71 67 85 12 14 22 29 22 34 0 6 20 40 45 77 25 37 45 72 45 78 0 6 13 34
29 63 15 29 39 82 51 118 13 36 27 70 31 76 5 5 15 35 23 65 7 30 21 72 29 94
8 22 34 112 56 200 23 88 50 187 60 220 11 33 27 94 37 135 9 41 20 82 24 91
5 9 11 37 15 62 4 26 13 51 20 57 8 6 17 26 20 43 4 18 17 49 28 70 37 66 8
83 -99 59 -34 -7 -43 -6 -51 7 -6 9 -21 17 -34 19 -13 1 -85 9 -159 17 -128
15 -530 36 -940 50 -102 3 -225 8 -275 10 -49 2 -308 7 -575 10 -267 4 -488 9
-492 12 -4 2 -195 4 -424 4 -337 -1 -414 2 -406 12 6 7 28 14 49 15 45 3 56
12 51 43 -2 17 -12 25 -38 30 -76 15 -406 32 -601 30 l-207 -1 -10 43 c-6 23
-9 53 -5 65 3 13 1 22 -6 22 -6 0 -11 7 -11 16 0 8 -7 38 -17 66 -13 41 -14
54 -4 70 14 23 6 37 -11 20 -10 -10 -15 -4 -24 25 -6 21 -15 37 -21 36 -6 -1
-15 9 -21 22 -7 14 -8 25 -3 25 5 0 2 18 -6 39 -10 26 -20 38 -29 34 -8 -3
-14 -1 -14 5 0 6 6 12 13 15 16 5 -9 37 -30 37 -11 0 -13 7 -9 25 4 15 2 25
-4 25 -6 0 -8 -6 -4 -12 4 -7 -5 -2 -20 12 -38 34 -50 59 -47 98 2 31 -11 43
-24 22 -4 -6 -11 -7 -17 -4 -6 4 -5 10 3 15 11 7 9 10 -8 15 -13 4 -23 12 -23
19 0 6 -9 20 -21 31 -12 11 -18 26 -15 37 6 25 -50 88 -62 70 -5 -8 -13 -9
-22 -3 -12 7 -11 12 4 29 18 19 18 20 -2 18 -11 0 -18 -6 -16 -12 3 -5 -6 3
-20 19 -14 17 -23 33 -21 37 3 4 -5 9 -16 12 -16 4 -19 11 -14 26 5 15 2 21
-10 21 -21 0 -43 22 -37 38 2 7 0 12 -5 10 -13 -4 -54 22 -48 31 2 5 -3 8 -12
7 -9 0 -18 5 -21 13 -2 8 0 11 6 7 9 -6 27 22 19 31 -7 6 -37 -9 -37 -19 0 -5
-5 -6 -10 -3 -6 4 -8 10 -6 14 3 4 -8 23 -25 42 -16 19 -29 28 -29 22 0 -7 -5
-13 -11 -13 -6 0 -8 9 -4 20 5 15 3 18 -9 14 -19 -7 -63 22 -72 48 -3 11 -12
17 -19 15 -20 -8 -36 13 -25 34 8 15 5 17 -23 15 -19 -2 -42 5 -56 16 -13 10
-18 18 -11 18 9 0 10 3 1 14 -6 7 -22 14 -35 14 -13 0 -37 11 -52 25 -15 15
-41 29 -58 33 -47 10 -82 36 -78 58 3 12 -1 17 -10 13 -7 -2 -12 -9 -11 -15 4
-15 -60 13 -65 28 -3 8 0 10 7 6 6 -4 11 -2 11 3 0 15 -13 14 -29 -1 -11 -11
-13 -9 -8 10 3 12 1 22 -5 22 -5 0 -7 4 -4 8 3 5 -1 9 -9 9 -8 0 -12 -3 -10
-7 2 -3 0 -12 -5 -19 -10 -16 -30 -6 -30 16 0 11 -6 14 -21 10 -24 -7 -49 1
-49 15 0 5 5 6 10 3 6 -3 10 -1 10 4 0 13 -17 14 -24 2 -4 -5 -19 -3 -36 6
-17 8 -28 18 -25 23 3 4 -4 6 -16 3 -14 -4 -28 2 -45 21 -31 33 -71 35 -83 4z"/>
<path d="M3572 10408 c6 -18 28 -21 28 -4 0 9 -7 16 -16 16 -9 0 -14 -5 -12
-12z"/>
<path d="M3196 10261 c-3 -5 1 -11 9 -15 8 -3 15 -1 15 4 0 13 -18 22 -24 11z"/>
<path d="M3895 10210 c3 -5 8 -10 11 -10 2 0 4 5 4 10 0 6 -5 10 -11 10 -5 0
-7 -4 -4 -10z"/>
<path d="M3064 9938 c-3 -4 18 -8 45 -8 28 0 51 3 51 8 0 10 -90 10 -96 0z"/>
<path d="M2956 9918 c3 -4 11 -5 19 -1 21 7 19 12 -4 10 -11 0 -18 -5 -15 -9z"/>
<path d="M4288 9848 c5 -5 16 -8 23 -6 8 3 3 7 -10 11 -17 4 -21 3 -13 -5z"/>
<path d="M3378 9813 c7 -3 16 -2 19 1 4 3 -2 6 -13 5 -11 0 -14 -3 -6 -6z"/>
<path d="M4533 9493 c9 -9 19 -14 23 -11 10 10 -6 28 -24 28 -15 0 -15 -1 1
-17z"/>
<path d="M4570 9479 c0 -5 5 -7 10 -4 6 3 10 8 10 11 0 2 -4 4 -10 4 -5 0 -10
-5 -10 -11z"/>
<path d="M2531 9364 c0 -11 3 -14 6 -6 3 7 2 16 -1 19 -3 4 -6 -2 -5 -13z"/>
<path d="M4756 9113 c-6 -14 -5 -15 5 -6 7 7 10 15 7 18 -3 3 -9 -2 -12 -12z"/>
<path d="M4750 9072 c0 -25 16 -37 23 -18 3 8 -1 20 -9 26 -11 10 -14 9 -14
-8z"/>
<path d="M2486 8975 c4 -8 8 -15 10 -15 2 0 4 7 4 15 0 8 -4 15 -10 15 -5 0
-7 -7 -4 -15z"/>
<path d="M8845 8640 c-3 -5 1 -10 10 -10 9 0 13 5 10 10 -3 6 -8 10 -10 10 -2
0 -7 -4 -10 -10z"/>
<path d="M6151 4864 c0 -11 3 -14 6 -6 3 7 2 16 -1 19 -3 4 -6 -2 -5 -13z"/>
<path d="M6026 1281 c-4 -5 -2 -12 3 -15 5 -4 12 -2 15 3 4 5 2 12 -3 15 -5 4
-12 2 -15 -3z"/>
<path d="M4038 143 c7 -3 16 -2 19 1 4 3 -2 6 -13 5 -11 0 -14 -3 -6 -6z"/>
</g>
</svg>
