<?xml version="1.0" standalone="no"?>
<!DOCTYPE svg PUBLIC "-//W3C//DTD SVG 20010904//EN"
 "http://www.w3.org/TR/2001/REC-SVG-20010904/DTD/svg10.dtd">
<svg version="1.0" xmlns="http://www.w3.org/2000/svg"
 width="1060.000000pt" height="1060.000000pt" viewBox="0 0 1060.000000 1060.000000"
 preserveAspectRatio="xMidYMid meet">
<metadata>
Created by potrace 1.11, written by Peter Selinger 2001-2013
</metadata>
<g transform="translate(0.000000,1060.000000) scale(0.100000,-0.100000)"
fill="#000000" stroke="none">
<path d="M2831 10568 c-9 -25 -6 -66 9 -112 7 -18 6 -33 0 -41 -12 -14 2 -67
19 -73 10 -3 11 3 6 27 -7 35 8 43 25 12 7 -14 6 -21 -3 -24 -8 -4 -7 -6 3 -6
15 -1 80 -101 80 -123 0 -5 11 -24 25 -42 14 -18 25 -38 25 -45 0 -7 4 -10 9
-7 10 6 21 -26 21 -61 0 -14 6 -23 16 -23 8 0 12 -4 9 -10 -3 -5 1 -10 9 -10
17 0 33 -39 40 -100 2 -14 4 -30 4 -37 1 -7 8 -10 16 -7 8 3 11 15 8 31 -3 18
-1 24 7 19 6 -4 9 -12 6 -17 -4 -5 -1 -9 6 -9 7 0 9 -3 6 -6 -7 -7 32 -87 46
-92 4 -2 7 -11 7 -20 0 -15 -2 -15 -11 -2 -9 12 -10 12 -5 -3 3 -10 6 -28 6
-38 0 -16 4 -19 21 -14 15 5 19 4 14 -5 -4 -6 1 -20 10 -30 27 -30 -6 -19 -52
18 -22 17 -43 29 -45 26 -3 -3 -15 6 -26 20 -11 15 -29 26 -41 26 -12 0 -21 5
-21 10 0 6 -9 10 -20 10 -25 0 -170 67 -170 79 0 10 -208 7 -232 -4 -11 -4
-18 -3 -18 4 0 6 5 11 10 11 6 0 10 5 10 10 0 6 -7 10 -15 10 -8 0 -15 -4 -15
-10 0 -5 -12 -13 -26 -16 l-27 -7 23 -12 c26 -14 16 -24 -34 -35 -18 -3 -31
-12 -31 -21 0 -24 -29 -49 -46 -38 -23 14 -27 11 -27 -25 0 -41 -30 -80 -49
-64 -10 8 -13 6 -13 -10 0 -12 5 -24 10 -27 16 -10 12 -23 -10 -30 -11 -4 -20
-12 -19 -18 5 -29 -30 -95 -68 -131 -28 -27 -32 -39 -37 -99 -3 -38 -10 -75
-17 -84 -32 -38 -45 -252 -22 -353 25 -111 25 -114 -27 -121 -161 -23 -302
-17 -285 11 3 5 0 12 -6 16 -8 4 -9 3 -5 -4 4 -7 1 -12 -9 -12 -9 0 -14 3 -12
8 3 4 -23 8 -56 10 -73 4 -140 19 -132 31 3 5 -5 9 -18 9 -12 0 -52 6 -89 13
-89 17 -170 3 -235 -43 -27 -18 -52 -31 -58 -30 -5 2 -7 0 -2 -4 4 -4 -1 -17
-12 -28 -21 -23 -45 -129 -30 -134 5 -2 7 -8 3 -13 -3 -5 0 -9 5 -9 6 0 11 -7
11 -15 0 -22 54 -67 117 -95 41 -20 74 -27 133 -29 47 -1 81 2 85 8 3 6 14 11
23 11 10 0 34 9 55 20 20 11 37 17 37 13 0 -3 9 2 19 11 15 13 38 18 90 19 38
0 70 3 69 6 -4 36 30 49 121 47 l74 -1 24 -80 c27 -89 70 -253 79 -300 7 -36
9 -45 16 -65 20 -52 76 -280 83 -332 2 -14 8 -36 15 -48 6 -12 12 -34 12 -51
1 -16 4 -29 7 -29 4 0 22 -46 40 -102 18 -57 41 -121 51 -143 10 -22 23 -57
30 -79 13 -42 46 -105 103 -203 21 -34 37 -67 37 -74 0 -7 7 -19 15 -28 9 -9
29 -33 45 -55 80 -104 240 -273 325 -344 82 -68 127 -108 165 -144 21 -21 43
-38 49 -38 6 0 11 -7 11 -15 0 -8 12 -21 28 -29 15 -8 50 -35 77 -61 28 -26
64 -56 80 -68 17 -11 48 -40 69 -64 22 -24 44 -43 49 -43 5 0 29 -17 52 -37
23 -21 66 -59 96 -85 30 -26 99 -87 154 -135 55 -49 117 -103 137 -120 34 -29
36 -33 20 -43 -15 -10 -15 -10 3 -5 21 5 56 -17 105 -65 14 -14 38 -34 54 -44
16 -10 33 -30 39 -45 6 -18 24 -33 52 -44 42 -18 125 -89 125 -108 0 -6 4 -8
9 -5 4 3 17 -4 27 -15 11 -12 37 -34 60 -50 23 -15 47 -42 54 -59 7 -16 17
-30 22 -30 5 0 6 6 2 13 -4 6 10 -4 32 -23 23 -19 63 -54 90 -77 27 -24 54
-43 60 -43 6 0 17 -6 23 -14 7 -8 36 -26 66 -41 50 -24 79 -53 80 -80 0 -5 6
-10 12 -10 17 0 46 -42 38 -55 -4 -6 -2 -9 3 -8 12 4 62 -56 62 -75 0 -9 5
-19 10 -22 6 -3 10 -16 10 -28 0 -13 7 -33 16 -46 13 -18 14 -25 4 -31 -9 -6
-7 -10 8 -14 22 -7 36 -45 26 -70 -4 -9 -2 -51 4 -94 6 -42 14 -165 17 -272 3
-107 9 -247 13 -310 4 -63 7 -165 7 -227 0 -61 4 -106 8 -100 4 7 6 -36 3 -95
-2 -58 0 -110 4 -115 5 -4 11 -109 15 -233 4 -124 8 -245 10 -270 2 -25 6
-132 9 -238 3 -106 7 -196 10 -200 8 -15 24 -489 30 -917 2 -170 -8 -285 -27
-297 -6 -3 -11 -16 -12 -27 -1 -11 2 -18 7 -15 4 3 8 1 8 -5 0 -5 -4 -13 -10
-16 -6 -3 -10 -19 -10 -34 0 -27 -28 -77 -76 -134 -13 -16 -24 -33 -24 -38 0
-12 -38 -50 -48 -47 -22 6 -420 -18 -452 -27 -8 -2 -46 -7 -85 -11 -38 -3
-101 -10 -140 -14 -38 -4 -80 -5 -93 -3 -15 2 -21 0 -17 -7 3 -5 -1 -10 -9
-10 -9 0 -16 6 -16 13 0 7 -3 8 -8 2 -7 -10 -15 -13 -60 -20 -15 -2 -74 -11
-132 -20 -58 -9 -127 -18 -155 -21 -27 -3 -63 -10 -80 -16 -16 -5 -59 -16 -95
-24 -82 -17 -94 -20 -152 -38 -27 -8 -48 -13 -48 -10 0 3 -7 -2 -16 -10 -8 -9
-24 -16 -35 -16 -10 0 -19 -4 -19 -9 0 -5 -13 -14 -30 -21 -29 -12 -80 -53
-80 -65 0 -6 -47 -72 -60 -85 -10 -10 -9 -143 1 -163 6 -11 12 -30 14 -43 1
-14 12 -33 24 -43 11 -10 21 -23 21 -30 0 -6 5 -11 11 -11 5 0 7 -5 3 -11 -4
-7 -1 -10 7 -7 8 3 27 -4 44 -16 16 -11 35 -21 42 -22 28 -4 113 -36 118 -45
4 -5 16 -9 28 -9 16 0 18 -3 9 -9 -11 -7 -11 -9 2 -14 8 -3 18 -2 20 2 8 12
109 -9 122 -26 6 -7 24 -13 40 -11 16 1 39 -4 51 -10 12 -7 41 -12 64 -12 36
0 40 -2 29 -15 -14 -16 -9 -18 40 -16 24 1 170 -21 350 -53 284 -50 524 -62
1170 -60 699 3 929 9 1075 28 66 8 156 18 199 21 43 3 84 9 90 12 5 4 26 6 45
4 19 -1 37 3 41 9 4 6 49 18 101 26 52 8 108 21 124 29 17 7 62 22 100 33 172
49 221 65 236 78 8 8 30 17 48 20 18 4 35 14 39 23 7 19 60 66 75 66 5 0 13 7
17 15 4 8 12 25 18 37 15 28 25 173 13 173 -10 0 -37 69 -33 83 1 4 -3 7 -9 7
-5 0 -7 5 -3 12 4 6 3 8 -3 5 -13 -8 -46 27 -36 38 5 4 3 5 -4 1 -12 -7 -117
46 -109 55 2 2 -9 5 -25 6 -30 2 -94 32 -69 33 12 0 12 2 1 12 -11 11 -14 11
-18 0 -3 -6 -9 -12 -14 -12 -6 0 -7 4 -4 10 3 6 -4 9 -17 8 -36 -3 -158 33
-151 45 3 6 2 7 -4 4 -5 -3 -45 3 -89 13 -43 11 -92 20 -107 20 -16 0 -26 3
-24 7 3 5 -12 9 -33 9 -21 1 -76 10 -122 19 -46 10 -94 17 -107 16 -13 0 -29
4 -36 9 -7 6 -21 9 -31 8 -19 -2 -246 10 -316 17 -44 4 -375 20 -400 18 -13 0
-18 7 -19 26 0 23 -1 24 -8 6 -7 -19 -8 -18 -21 5 -7 14 -26 41 -41 61 -16 20
-29 44 -29 52 0 8 -7 20 -15 27 -22 19 -47 113 -49 189 -1 45 -8 75 -20 94
-16 23 -18 39 -12 95 3 37 8 77 10 89 3 13 1 25 -4 28 -8 5 -6 314 2 345 3 8
11 27 18 42 10 22 10 31 1 42 -14 16 -12 157 2 149 4 -2 5 8 3 24 -15 82 -16
103 -9 103 5 0 9 78 8 173 0 202 14 618 23 631 3 5 5 52 5 105 -1 53 2 100 4
105 3 5 7 133 9 285 2 152 6 319 9 371 3 52 8 163 11 245 3 83 8 157 11 165 3
8 7 47 8 87 8 174 15 220 43 282 15 34 32 58 36 54 4 -4 7 -3 6 2 -1 6 -2 25
-1 44 1 25 5 32 15 28 9 -4 13 -1 10 6 -2 7 11 30 31 51 19 21 35 44 35 50 0
14 46 57 53 50 2 -2 12 13 21 34 13 29 29 43 67 60 27 13 49 27 49 32 0 6 6
10 13 10 7 0 33 23 57 51 25 28 58 57 74 66 30 16 76 60 76 74 0 4 9 10 20 14
11 3 45 31 77 62 32 31 75 66 96 80 21 13 41 31 44 39 3 8 17 21 32 28 15 8
46 32 71 55 24 22 48 37 53 34 6 -3 7 -1 4 4 -4 6 16 30 44 54 28 24 81 71
117 103 69 61 198 166 248 201 15 11 39 33 53 49 30 32 112 92 124 88 4 -1 7
4 7 11 0 14 54 67 68 67 4 0 22 16 41 35 18 19 37 35 42 35 5 0 39 27 76 61
37 33 84 70 104 82 21 12 40 30 42 39 3 10 16 22 29 27 13 5 47 32 76 61 32
31 58 50 67 47 9 -4 12 -1 8 9 -3 8 5 25 18 38 57 54 147 157 174 197 16 24
42 57 57 73 16 17 28 34 28 40 0 5 20 40 45 77 25 37 45 71 45 76 0 4 17 44
39 88 21 44 44 98 51 120 7 22 16 45 20 50 12 16 76 229 114 380 20 77 45 167
55 200 11 33 27 94 37 135 9 41 20 82 24 90 4 9 11 36 15 60 4 25 13 52 20 60
7 8 18 33 24 55 6 22 18 50 27 63 9 13 14 33 10 45 -4 18 -12 23 -38 22 -18
-1 -40 -4 -48 -8 -39 -15 -70 -14 -75 3 -3 10 -16 17 -33 18 -15 1 -88 8 -162
17 -130 15 -541 37 -935 50 -104 3 -228 8 -275 10 -47 2 -305 7 -575 11 -269
3 -493 8 -497 11 -4 2 -194 4 -423 4 -267 -1 -415 3 -415 9 0 6 1 10 3 10 1 1
20 3 42 6 61 8 67 11 63 41 -2 22 -10 29 -38 34 -76 15 -406 32 -601 30 l-207
-1 -10 43 c-6 23 -9 53 -5 65 3 13 1 22 -6 22 -6 0 -11 7 -11 16 0 8 -7 38
-17 66 -13 41 -14 54 -4 70 14 23 6 37 -11 20 -10 -10 -15 -4 -23 25 -6 21
-15 37 -20 35 -11 -4 -29 37 -26 57 4 24 -21 72 -35 67 -8 -3 -14 -1 -14 3 0
5 6 11 13 14 16 5 -9 37 -30 37 -11 0 -14 7 -9 28 4 17 3 22 -2 14 -7 -10 -17
-4 -40 23 -18 20 -32 41 -33 48 -1 7 -1 27 -1 45 -1 30 -2 32 -18 17 -18 -17
-32 -11 -23 11 3 8 -1 14 -11 14 -9 0 -16 6 -16 13 0 8 -9 22 -21 33 -12 11
-18 26 -15 37 6 25 -50 88 -62 70 -5 -8 -13 -9 -22 -3 -12 7 -11 12 4 29 18
19 18 20 -2 18 -11 0 -18 -6 -16 -12 3 -5 -6 3 -20 19 -14 17 -23 33 -21 37 3
4 -5 9 -16 12 -16 4 -19 11 -14 26 5 17 2 21 -14 21 -12 0 -21 7 -21 15 0 9
-15 25 -34 36 -24 14 -33 25 -29 37 4 13 3 14 -5 3 -5 -7 -15 -10 -21 -7 -16
10 -14 26 4 26 8 0 15 6 15 14 0 9 -7 12 -20 9 -11 -3 -20 -10 -20 -15 0 -5
-5 -6 -10 -3 -6 4 -8 10 -5 15 9 14 -58 80 -81 80 -26 0 -78 46 -68 61 4 6 -1
9 -12 8 -28 -5 -43 8 -37 32 5 19 3 21 -18 16 -16 -4 -35 1 -54 14 -17 12 -21
18 -11 15 19 -7 19 -6 3 12 -10 11 -29 20 -43 20 -14 0 -37 11 -52 25 -15 13
-38 28 -52 32 -55 15 -87 37 -82 58 4 14 1 18 -9 15 -8 -3 -13 -10 -12 -16 2
-7 -9 -6 -29 3 -33 13 -50 35 -27 35 7 0 9 3 6 6 -4 4 -12 2 -20 -4 -10 -8
-13 -6 -14 10 -3 32 -20 44 -28 19 -8 -27 -25 -27 -32 0 -4 15 -11 19 -25 15
-12 -2 -43 8 -74 25 -30 16 -60 29 -67 29 -8 0 -23 11 -35 25 -28 32 -70 33
-81 3z m899 -478 c0 -5 -4 -10 -10 -10 -5 0 -10 5 -10 10 0 6 5 10 10 10 6 0
10 -4 10 -10z m-674 -555 c82 -14 162 -30 178 -35 51 -17 84 -12 102 15 9 14
19 25 23 25 9 0 23 -36 76 -190 65 -187 64 -180 26 -180 -27 0 -158 -24 -269
-50 -23 -6 -59 -21 -80 -34 -66 -41 -75 -41 -108 5 -52 73 -125 159 -134 159
-16 0 -142 160 -171 217 -35 68 -36 81 -6 88 77 17 183 11 363 -20z"/>
<path d="M2987 10539 c7 -7 15 -10 18 -7 3 3 -2 9 -12 12 -14 6 -15 5 -6 -5z"/>
<path d="M3040 10509 c0 -5 5 -7 10 -4 6 3 10 8 10 11 0 2 -4 4 -10 4 -5 0
-10 -5 -10 -11z"/>
<path d="M3292 10398 c6 -18 28 -21 28 -4 0 9 -7 16 -16 16 -9 0 -14 -5 -12
-12z"/>
<path d="M2916 10251 c-3 -5 1 -11 9 -15 8 -3 15 -1 15 4 0 13 -18 22 -24 11z"/>
<path d="M3615 10200 c3 -5 8 -10 11 -10 2 0 4 5 4 10 0 6 -5 10 -11 10 -5 0
-7 -4 -4 -10z"/>
<path d="M2793 9929 c-29 -10 0 -15 47 -8 25 3 43 7 40 8 -12 6 -72 6 -87 0z"/>
<path d="M2676 9908 c3 -4 11 -5 19 -1 21 7 19 12 -4 10 -11 0 -18 -5 -15 -9z"/>
<path d="M4006 9838 c3 -4 9 -8 15 -8 5 0 9 4 9 8 0 5 -7 9 -15 9 -8 0 -12 -4
-9 -9z"/>
<path d="M3108 9803 c7 -3 16 -2 19 1 4 3 -2 6 -13 5 -11 0 -14 -3 -6 -6z"/>
<path d="M4240 9502 c0 -10 21 -32 32 -32 16 0 8 19 -12 30 -11 6 -20 7 -20 2z"/>
<path d="M4290 9470 c0 -5 5 -10 10 -10 6 0 10 5 10 10 0 6 -4 10 -10 10 -5 0
-10 -4 -10 -10z"/>
<path d="M2251 9354 c0 -11 3 -14 6 -6 3 7 2 16 -1 19 -3 4 -6 -2 -5 -13z"/>
<path d="M4455 9130 c-3 -5 -1 -10 4 -10 6 0 11 5 11 10 0 6 -2 10 -4 10 -3 0
-8 -4 -11 -10z"/>
<path d="M4470 9061 c0 -11 5 -23 10 -26 6 -3 10 3 10 14 0 11 -4 23 -10 26
-5 3 -10 -3 -10 -14z"/>
<path d="M2205 8970 c3 -5 8 -10 11 -10 2 0 4 5 4 10 0 6 -5 10 -11 10 -5 0
-7 -4 -4 -10z"/>
<path d="M8560 8620 c0 -5 7 -7 15 -4 8 4 15 8 15 10 0 2 -7 4 -15 4 -8 0 -15
-4 -15 -10z"/>
<path d="M5871 4854 c0 -11 3 -14 6 -6 3 7 2 16 -1 19 -3 4 -6 -2 -5 -13z"/>
<path d="M5745 1269 c-10 -15 3 -25 16 -12 7 7 7 13 1 17 -6 3 -14 1 -17 -5z"/>
</g>
</svg>
